<?xml version="1.0" standalone="no"?>
<!DOCTYPE svg PUBLIC "-//W3C//DTD SVG 20010904//EN"
 "http://www.w3.org/TR/2001/REC-SVG-20010904/DTD/svg10.dtd">
<svg version="1.0" xmlns="http://www.w3.org/2000/svg"
 width="2048.000000pt" height="1920.000000pt" viewBox="0 0 2048.000000 1920.000000"
 preserveAspectRatio="xMidYMid meet">

<g transform="translate(0.000000,1920.000000) scale(0.100000,-0.100000)"
fill="#000000" stroke="none">
<path d="M4720 13800 c-125 -11 -285 -36 -390 -61 -123 -29 -368 -114 -477
-165 -52 -24 -97 -44 -99 -44 -3 0 -54 -28 -112 -62 -59 -35 -114 -67 -124
-73 -47 -27 -184 -128 -273 -201 -170 -139 -378 -362 -480 -516 -19 -29 -43
-64 -54 -78 -36 -49 -132 -220 -172 -307 -22 -48 -47 -100 -54 -114 -28 -52
-127 -353 -149 -454 -37 -168 -68 -453 -48 -441 7 4 76 19 154 33 121 22 173
26 343 26 245 1 350 -15 543 -83 132 -46 160 -58 288 -126 77 -41 290 -184
329 -221 17 -15 47 -39 67 -53 21 -14 38 -28 38 -32 0 -5 19 -22 43 -38 41
-30 294 -265 326 -304 9 -10 27 -28 40 -40 13 -12 50 -47 81 -79 43 -42 63
-56 76 -51 14 4 16 3 5 -4 -20 -14 75 -114 101 -106 10 3 25 -1 33 -10 22 -22
18 -32 -5 -11 -11 10 -23 15 -27 12 -8 -9 36 -47 54 -47 8 0 13 -6 11 -14 -2
-7 20 -34 48 -60 49 -44 73 -58 59 -36 -3 6 -1 10 5 10 6 0 8 -10 4 -24 -4
-18 -1 -27 14 -35 26 -14 43 -14 20 0 -10 5 -18 15 -18 21 0 6 9 3 20 -7 11
-10 17 -22 14 -27 -7 -10 19 -34 54 -48 12 -5 22 -13 21 -17 -3 -19 2 -33 12
-33 8 0 8 5 -1 15 -9 11 -10 15 -1 15 8 0 7 5 -3 15 -8 8 -19 15 -24 15 -5 0
-26 26 -48 58 -21 31 -46 62 -54 69 -12 10 -12 12 -1 13 10 0 11 4 3 13 -6 6
-12 17 -13 22 -7 21 -34 45 -51 45 -14 0 -18 8 -18 43 0 30 -3 38 -10 27 -13
-21 -25 -4 -22 35 2 18 -1 36 -7 40 -6 3 -11 26 -11 51 0 42 -1 44 -30 44 -28
0 -30 2 -30 40 0 29 4 40 15 40 12 0 15 20 15 119 0 116 1 120 23 123 20 3 22
10 27 78 l5 75 75 5 75 5 3 78 c2 53 7 77 15 77 7 0 20 9 30 20 13 15 29 20
67 20 l50 0 0 60 0 59 78 3 77 3 3 77 3 77 77 3 77 3 3 78 3 77 29 0 c15 0 31
6 33 13 4 9 7 9 15 -1 5 -8 23 -12 43 -10 l34 3 3 77 3 77 77 3 77 3 3 77 3
77 77 3 77 3 3 77 3 77 77 3 77 3 3 77 3 77 77 3 77 3 3 78 3 77 29 0 c15 0
31 6 33 13 4 9 7 9 15 -1 5 -8 23 -12 43 -10 l34 3 3 77 3 77 77 3 77 3 3 65
c4 102 7 110 47 110 30 0 35 -3 35 -23 l0 -24 198 -7 c109 -4 198 -11 200 -16
2 -6 21 -10 42 -10 48 0 62 -17 18 -22 l-33 -4 28 -13 c15 -8 27 -20 27 -27 0
-7 13 -12 36 -11 21 1 39 -5 45 -13 7 -13 9 -13 9 0 0 13 1 13 10 0 8 -12 12
-12 18 -2 6 9 13 7 30 -8 12 -12 22 -26 22 -32 0 -6 3 -8 6 -5 4 4 -5 25 -20
47 -14 22 -38 59 -53 83 -16 23 -30 44 -33 47 -3 3 -18 25 -32 50 -28 49 -78
101 -78 82 0 -7 -5 -12 -11 -12 -8 0 -7 5 1 15 14 17 3 37 -64 115 -48 56
-279 283 -315 310 -19 14 -52 41 -75 61 -87 76 -282 200 -438 280 -54 27 -102
49 -108 49 -6 0 -23 9 -38 19 -15 11 -108 47 -207 80 -287 95 -489 130 -805
136 -113 2 -248 0 -300 -5z m2440 -1169 c-1 -11 -5 -8 -15 9 -8 14 -14 19 -15
11 0 -8 -3 -12 -6 -8 -3 3 -3 11 1 17 9 15 35 -7 35 -29z m-280 19 c0 -6 -33
-10 -80 -10 -47 0 -80 4 -80 10 0 6 33 10 80 10 47 0 80 -4 80 -10z m305 -50
c3 -5 2 -10 -4 -10 -5 0 -13 5 -16 10 -3 6 -2 10 4 10 5 0 13 -4 16 -10z m25
-40 c0 -5 -2 -10 -4 -10 -3 0 -8 5 -11 10 -3 6 -1 10 4 10 6 0 11 -4 11 -10z
m-2490 -1880 c0 -22 -4 -40 -10 -40 -5 0 -10 18 -10 40 0 22 5 40 10 40 6 0
10 -18 10 -40z m-30 -420 c0 -5 -2 -10 -4 -10 -3 0 -8 5 -11 10 -3 6 -1 10 4
10 6 0 11 -4 11 -10z m174 -122 c-9 -13 -31 -9 -55 11 l-24 19 42 -11 c23 -6
40 -14 37 -19z m-11 -38 c3 -11 10 -19 15 -18 6 2 10 0 11 -4 4 -27 -2 -28
-24 -4 -26 28 -32 46 -16 46 5 0 11 -9 14 -20z m27 10 c0 -5 -2 -10 -4 -10 -3
0 -8 5 -11 10 -3 6 -1 10 4 10 6 0 11 -4 11 -10z"/>
<path d="M8090 12511 c-25 -7 -25 -7 -28 -145 -2 -93 1 -143 9 -152 9 -11 77
-14 375 -14 200 0 364 -3 364 -7 0 -5 1 -284 3 -621 2 -532 4 -614 17 -622 20
-13 290 -13 310 0 13 8 15 91 18 630 l3 620 368 0 c302 0 371 3 380 14 8 9 11
59 9 152 -3 138 -3 138 -28 145 -33 9 -1768 9 -1800 0z"/>
<path d="M10195 12513 c-22 -2 -46 -11 -52 -20 -10 -13 -13 -184 -13 -775 0
-738 0 -758 19 -768 11 -5 79 -10 151 -10 72 0 140 5 151 10 18 10 19 28 19
630 0 614 0 619 21 630 14 8 157 10 472 8 440 -3 453 -4 492 -24 83 -45 97
-80 96 -237 -1 -137 -11 -170 -67 -212 l-39 -30 -400 -5 -400 -5 -3 -132 -3
-133 283 0 283 0 50 -67 c28 -37 63 -85 79 -107 15 -23 40 -54 56 -71 15 -16
48 -59 73 -95 25 -36 64 -87 87 -113 l42 -47 176 2 c222 4 221 3 99 143 -21
24 -55 66 -75 93 -41 55 -153 194 -162 202 -14 12 -60 78 -60 87 0 5 22 15 49
21 57 13 149 69 180 108 68 86 101 215 101 394 0 243 -61 394 -188 465 -100
56 -111 57 -822 60 -360 2 -673 1 -695 -2z"/>
<path d="M13005 12512 c-99 -19 -132 -55 -260 -292 -37 -69 -71 -129 -75 -135
-4 -5 -27 -48 -50 -95 -24 -47 -48 -92 -55 -100 -7 -8 -34 -58 -60 -110 -26
-52 -53 -102 -60 -110 -7 -8 -34 -58 -60 -110 -27 -52 -53 -101 -59 -109 -12
-15 -87 -152 -171 -315 -31 -60 -66 -122 -77 -137 -40 -54 -27 -59 159 -59
137 0 173 3 191 16 12 8 40 52 63 97 22 45 57 110 76 144 l35 63 528 0 529 0
31 -46 c17 -26 51 -87 76 -136 72 -143 63 -138 259 -138 183 0 194 4 159 58
-10 15 -40 70 -67 122 -27 52 -55 102 -62 110 -6 8 -33 58 -60 110 -26 52 -53
102 -60 110 -7 8 -35 58 -62 110 -73 138 -151 283 -163 300 -5 8 -28 51 -51
95 -23 44 -49 91 -59 105 -9 14 -37 63 -62 110 -123 234 -158 284 -221 315
-47 22 -71 27 -163 30 -60 2 -127 1 -149 -3z m157 -329 c14 -17 36 -56 144
-262 24 -46 48 -89 53 -95 4 -6 31 -54 59 -106 27 -52 61 -115 76 -140 14 -25
26 -48 26 -52 0 -5 -173 -8 -384 -8 -212 0 -387 3 -389 8 -3 4 7 25 21 47 14
22 47 81 73 130 42 80 80 151 206 385 52 97 62 110 82 110 10 0 25 -8 33 -17z"/>
<path d="M13868 12513 c-10 -3 -18 -13 -18 -23 0 -20 45 -110 106 -210 18 -31
38 -68 43 -83 6 -15 26 -51 44 -80 18 -28 52 -90 76 -137 24 -47 49 -92 56
-100 6 -8 31 -53 55 -100 23 -47 48 -92 55 -100 7 -8 36 -60 65 -115 29 -55
56 -104 60 -110 5 -5 30 -50 56 -100 26 -49 60 -110 76 -134 15 -25 28 -48 28
-52 0 -19 73 -130 110 -167 53 -52 111 -65 269 -60 136 4 178 20 222 82 16 23
33 46 39 53 5 6 24 40 42 75 17 35 53 100 80 146 26 46 48 87 48 91 0 4 16 34
36 67 20 32 56 100 81 149 25 50 51 97 58 105 7 8 32 53 55 100 24 47 48 92
55 100 7 8 34 58 60 110 27 52 54 102 60 110 7 8 37 62 67 120 31 58 72 136
93 174 51 93 48 95 -144 95 -80 0 -156 -3 -168 -6 -22 -5 -47 -44 -128 -198
-17 -33 -69 -130 -115 -215 -46 -85 -102 -189 -125 -232 -57 -107 -156 -293
-181 -336 -11 -20 -39 -73 -63 -117 -76 -144 -87 -160 -108 -163 -24 -4 -36
13 -111 153 -30 55 -80 146 -111 203 -31 57 -75 140 -99 185 -24 45 -53 98
-64 117 -12 19 -41 73 -65 119 -24 47 -47 89 -52 95 -5 6 -31 54 -58 106 -28
52 -60 111 -72 131 -12 20 -34 61 -49 90 -21 41 -34 55 -57 61 -30 8 -274 8
-307 1z"/>
<path d="M16595 12510 c-209 -14 -304 -47 -396 -139 -64 -65 -101 -136 -120
-236 -22 -110 -19 -747 3 -835 49 -193 149 -290 344 -337 59 -14 154 -17 675
-20 550 -4 608 -3 623 12 13 13 16 39 16 131 0 64 -5 124 -10 135 -10 18 -27
19 -513 19 -573 0 -657 6 -722 47 -70 44 -89 89 -90 208 l0 100 655 5 655 5 0
130 0 130 -655 5 -655 5 -3 65 c-6 128 28 197 117 239 l56 26 573 5 c495 4
574 7 582 20 16 25 12 243 -4 266 -14 18 -32 19 -518 20 -277 1 -552 -2 -613
-6z"/>
<path d="M18020 12502 l-21 -17 4 -555 c3 -477 6 -565 21 -625 47 -196 146
-295 343 -342 58 -14 155 -17 639 -20 519 -4 573 -3 588 12 13 13 16 39 16
139 0 82 -4 128 -12 139 -12 15 -63 17 -548 19 l-535 3 -45 24 c-66 34 -88 59
-107 115 -15 44 -18 121 -22 576 l-6 524 -23 12 c-12 6 -77 11 -146 12 -104 1
-128 -2 -146 -16z"/>
<path d="M7172 12464 c10 -10 20 -15 24 -12 3 4 -5 12 -18 18 -22 12 -22 12
-6 -6z"/>
<path d="M7304 12406 c4 -17 3 -25 -3 -22 -15 9 -24 -31 -11 -51 8 -15 9 -13
4 10 -8 36 2 34 21 -3 9 -16 20 -30 26 -30 6 0 1 12 -10 26 -12 15 -21 31 -21
35 0 16 18 9 24 -8 11 -31 65 -128 65 -120 1 5 -17 47 -40 93 -43 88 -67 119
-55 70z"/>
<path d="M7385 12220 c4 -6 11 -8 16 -5 14 9 11 15 -7 15 -8 0 -12 -5 -9 -10z"/>
<path d="M7362 12200 c0 -14 2 -19 5 -12 2 6 2 18 0 25 -3 6 -5 1 -5 -13z"/>
<path d="M7412 12190 c0 -14 2 -19 5 -12 2 6 2 18 0 25 -3 6 -5 1 -5 -13z"/>
<path d="M7444 12128 c3 -10 9 -25 13 -35 4 -11 3 -14 -5 -9 -9 6 -9 1 0 -19
9 -21 13 -23 20 -11 6 10 1 29 -12 53 -12 21 -19 30 -16 21z"/>
<path d="M7858 12035 c-5 -38 -8 -122 -8 -185 0 -154 -28 -861 -59 -1463 l-6
-129 -60 -25 c-33 -13 -77 -38 -98 -55 -35 -27 -40 -29 -75 -18 -20 7 -46 18
-57 25 -11 6 -47 21 -80 33 -100 35 -352 127 -485 176 -139 52 -193 56 -85 8
39 -18 79 -37 90 -44 32 -19 166 -83 205 -98 19 -7 42 -19 50 -25 8 -7 62 -34
120 -59 58 -26 112 -54 121 -62 8 -8 24 -14 35 -14 11 0 28 -6 39 -13 17 -13
17 -16 1 -59 -10 -24 -23 -69 -29 -99 l-13 -54 -44 4 c-25 1 -50 7 -57 13 -6
5 -71 16 -145 23 -73 8 -191 21 -263 30 -71 9 -188 22 -260 30 -71 8 -166 21
-210 30 -44 8 -159 24 -255 35 -96 11 -227 27 -290 34 -63 8 -160 20 -215 26
-55 6 -129 18 -165 25 -36 8 -126 21 -200 30 -74 8 -202 24 -285 35 -198 26
-195 26 -195 -6 0 -14 4 -22 10 -19 10 6 95 -9 260 -45 79 -17 137 -28 193
-35 12 -1 60 -10 107 -19 47 -9 146 -28 220 -42 74 -14 223 -43 330 -63 133
-26 188 -40 173 -45 -40 -13 -111 -102 -121 -154 -18 -84 -1 -135 70 -204 52
-50 70 -58 135 -58 77 0 108 11 157 58 49 47 66 87 66 156 0 66 -12 102 -48
139 -14 15 -23 27 -20 27 26 0 524 -94 608 -115 56 -13 178 -34 325 -55 152
-22 172 -28 185 -60 16 -38 116 -125 177 -152 39 -18 67 -22 148 -23 136 0
198 23 283 107 34 34 62 67 62 74 0 7 5 16 10 19 6 4 118 27 248 51 130 24
268 51 306 60 38 8 133 26 210 39 243 42 313 54 330 61 23 9 20 -9 -5 -32 -32
-28 -49 -76 -49 -138 0 -68 12 -102 53 -145 63 -66 143 -86 228 -56 81 29 139
111 139 197 0 76 -56 169 -117 195 -20 8 -33 16 -31 18 2 3 78 18 169 35 90
17 191 37 224 45 33 7 177 34 320 60 143 25 270 50 281 55 12 4 142 29 290 55
148 26 274 51 279 57 7 7 2 9 -15 5 -55 -13 -167 -28 -415 -57 -304 -35 -400
-47 -475 -60 -30 -5 -131 -19 -225 -30 -93 -11 -204 -25 -245 -30 -41 -5 -136
-17 -210 -26 -74 -9 -160 -20 -190 -24 -97 -15 -439 -58 -665 -85 -121 -14
-255 -32 -298 -40 -44 -8 -82 -13 -87 -10 -4 2 -10 27 -13 55 -3 27 -15 70
-26 94 -14 34 -16 47 -8 54 7 5 98 51 202 101 105 50 244 118 310 150 66 33
155 75 198 94 42 20 77 39 77 42 0 3 -5 3 -11 0 -11 -8 -262 -100 -474 -176
-77 -27 -153 -56 -170 -63 -16 -8 -70 -28 -120 -45 l-90 -31 -25 20 c-27 22
-143 80 -159 80 -15 0 -19 29 -25 185 -3 77 -12 316 -20 530 -8 215 -20 541
-26 725 -15 447 -14 428 -22 345z"/>
<path d="M7542 11840 c0 -14 2 -19 5 -12 2 6 2 18 0 25 -3 6 -5 1 -5 -13z"/>
<path d="M7621 11454 c0 -11 3 -14 6 -6 3 7 2 16 -1 19 -3 4 -6 -2 -5 -13z"/>
<path d="M2470 11170 c-177 -22 -410 -73 -525 -115 -49 -18 -121 -44 -160 -58
-111 -40 -155 -59 -155 -67 0 -4 46 -9 102 -9 178 -2 455 -54 598 -112 138
-55 227 -94 250 -109 14 -9 59 -34 100 -55 41 -21 89 -50 107 -64 17 -14 53
-39 80 -55 57 -35 189 -134 255 -191 25 -22 83 -71 128 -110 45 -38 101 -88
124 -110 23 -22 118 -112 211 -200 93 -88 223 -212 289 -276 67 -64 162 -152
212 -195 49 -44 110 -96 135 -118 24 -21 69 -57 99 -80 30 -22 62 -48 70 -57
8 -8 40 -32 71 -52 31 -20 64 -46 74 -57 10 -11 22 -20 27 -20 5 0 49 -27 99
-60 50 -33 122 -76 162 -96 40 -20 79 -42 87 -49 8 -7 71 -36 140 -65 69 -29
130 -56 135 -60 12 -9 228 -73 305 -90 30 -7 71 -18 90 -25 34 -13 130 -29
235 -40 82 -9 273 -14 230 -7 -31 5 -41 12 -43 30 -3 18 -10 22 -38 22 -22 0
-37 6 -40 15 -4 10 -20 15 -46 15 l-39 0 3 72 3 72 45 4 c47 4 64 12 43 19 -7
3 -13 13 -13 24 0 25 36 26 63 2 18 -17 19 -17 16 2 -2 11 -11 23 -19 26 -8 3
-17 17 -20 30 -3 13 -11 24 -16 24 -6 0 -18 8 -28 18 -10 9 -22 17 -27 17 -5
0 -9 7 -9 15 0 17 16 20 25 5 4 -6 11 -8 16 -5 5 4 9 3 9 -2 0 -4 13 -8 29 -9
16 -1 36 -8 45 -16 8 -9 32 -19 53 -23 21 -4 54 -15 75 -25 24 -11 35 -13 32
-5 -3 7 -39 22 -80 35 -41 12 -74 25 -74 29 0 4 -24 16 -52 26 -29 10 -85 33
-125 51 -39 18 -74 30 -77 27 -3 -4 -6 -1 -6 5 0 6 -17 20 -37 30 -84 42 -160
84 -190 105 -17 12 -57 38 -89 57 -31 19 -62 40 -69 46 -6 7 -46 35 -87 63
-42 28 -78 54 -80 58 -1 5 -21 21 -43 38 -57 42 -131 105 -264 225 -64 58
-121 109 -127 115 -7 5 -171 168 -365 360 -195 193 -374 368 -399 390 -112
100 -218 189 -250 210 -19 12 -46 32 -60 44 -14 11 -47 35 -75 53 -27 17 -73
47 -101 65 -72 47 -287 146 -369 171 -88 26 -249 60 -340 72 -80 10 -253 10
-335 0z m3259 -2104 c10 -11 8 -16 -9 -21 -12 -4 -27 -2 -32 3 -8 8 -4 9 11 5
22 -6 30 12 9 20 -8 4 -9 6 -2 6 6 1 17 -5 23 -13z m122 -65 c-8 -5 -20 -7
-28 -4 -21 8 -15 13 15 13 20 0 23 -3 13 -9z m61 -156 c-5 -36 0 -32 -39 -38
-33 -5 -33 -5 -33 34 l0 40 38 -3 c35 -3 37 -5 34 -33z m-185 -221 c-3 -3 -12
-4 -19 -1 -8 3 -5 6 6 6 11 1 17 -2 13 -5z m190 -14 c-1 -18 -8 -20 -49 -19
-56 2 -56 3 -3 22 54 20 54 20 52 -3z m-160 -6 c-3 -3 -12 -4 -19 -1 -8 3 -5
6 6 6 11 1 17 -2 13 -5z"/>
<path d="M12122 10383 l3 -358 435 0 435 0 0 75 c0 53 -4 75 -12 76 -7 1 -164
2 -348 3 l-335 1 0 65 0 65 305 0 306 0 -3 73 -3 72 -302 3 -303 2 0 60 0 60
348 2 347 3 3 78 3 77 -441 0 -440 0 2 -357z"/>
<path d="M13177 10692 c32 -27 75 -58 96 -71 20 -12 37 -26 37 -30 0 -5 19
-21 42 -36 67 -45 193 -147 196 -159 1 -6 -39 -43 -90 -81 -88 -66 -145 -111
-266 -207 -29 -24 -64 -49 -78 -56 -48 -25 -24 -32 115 -32 l139 0 113 92 c63
50 136 111 164 135 27 24 57 43 66 43 9 0 39 -19 65 -43 27 -23 65 -54 84 -69
19 -14 44 -34 55 -45 11 -10 47 -39 79 -63 l59 -45 139 0 c76 -1 138 2 138 6
0 3 -24 23 -52 43 -29 20 -83 60 -119 89 -36 29 -101 79 -145 111 -87 66 -144
116 -144 127 0 4 15 17 33 28 17 11 43 30 57 43 14 13 50 41 80 63 30 21 71
52 90 68 19 15 66 53 104 83 l69 54 -151 0 c-149 0 -151 0 -171 -25 -11 -15
-36 -37 -57 -51 -20 -14 -74 -56 -119 -95 -45 -38 -88 -69 -95 -69 -11 0 -73
49 -242 192 l-56 48 -147 0 -147 0 59 -48z"/>
<path d="M14430 10385 l0 -355 90 0 90 0 0 110 c0 81 3 110 13 110 6 1 116 0
242 0 353 -1 430 18 500 120 27 40 30 53 30 120 0 73 -16 123 -49 155 -35 34
-107 76 -146 84 -26 6 -199 11 -407 11 l-363 0 0 -355z m755 175 c39 -36 48
-65 30 -100 -31 -59 -34 -60 -332 -60 l-273 0 0 88 c0 49 3 92 7 96 4 4 127 6
274 4 l267 -3 27 -25z"/>
<path d="M15517 10733 c-4 -3 -7 -163 -7 -355 l0 -348 94 0 93 0 1 118 c0 64
1 123 1 130 1 9 43 12 174 12 l172 0 45 -61 c25 -34 55 -68 67 -77 13 -8 23
-20 23 -27 0 -14 34 -47 42 -40 3 3 11 -2 19 -12 9 -11 10 -14 2 -9 -16 9 -17
-6 -1 -22 13 -13 69 -17 67 -4 -5 32 2 37 48 33 26 -2 53 -10 61 -17 7 -8 9
-14 3 -14 -5 0 -13 5 -16 10 -10 17 -85 12 -85 -5 0 -12 14 -15 67 -15 l66 0
-19 23 c-10 12 -26 29 -34 38 -8 9 -30 35 -49 57 -20 23 -40 38 -48 35 -8 -3
-11 0 -8 9 4 9 -7 29 -25 47 -39 43 -39 61 1 61 19 0 28 4 23 11 -4 8 1 9 16
4 15 -5 20 -4 16 4 -4 7 -1 9 8 5 11 -4 15 1 14 18 -1 12 -6 29 -11 36 -13 16
4 15 27 -3 29 -22 32 -20 62 31 22 38 25 50 16 65 -16 26 -15 40 3 33 16 -6
21 16 8 30 -4 4 -8 21 -9 38 -2 32 -24 66 -24 36 0 -9 5 -20 10 -23 6 -3 10
-11 10 -17 0 -7 -5 -7 -14 1 -11 9 -15 8 -20 -5 -10 -25 -7 -122 4 -129 6 -3
10 -14 10 -23 0 -15 -2 -15 -11 -2 -10 13 -10 13 -6 0 3 -10 -3 -15 -21 -17
-18 -1 -21 1 -11 8 17 10 19 69 2 87 -10 10 -14 4 -24 -30 -16 -57 -26 -67
-35 -34 -8 33 -17 33 -34 1 -7 -14 -17 -25 -21 -25 -5 0 3 16 16 36 24 36 35
107 18 117 -5 3 -8 -15 -8 -40 0 -35 -5 -49 -24 -64 -22 -18 -40 -19 -295 -17
l-271 3 1 75 1 75 249 5 c212 4 255 3 289 -11 22 -9 45 -14 52 -12 17 6 26
-15 25 -66 0 -25 2 -40 5 -33 2 6 11 12 19 12 12 0 14 12 12 58 -2 47 -6 57
-20 56 -10 -1 -15 2 -13 7 3 4 -3 12 -12 18 -10 5 -15 12 -12 16 4 3 13 0 20
-8 18 -18 39 -10 39 14 0 11 7 19 16 19 9 0 12 -5 8 -12 -5 -8 -2 -9 9 -5 14
5 17 0 18 -26 2 -31 2 -31 6 -4 6 38 -21 69 -53 61 -25 -6 -34 10 -11 19 7 4
5 6 -5 7 -10 2 -22 4 -28 5 -5 1 -18 3 -27 4 -14 1 -15 3 -5 10 9 5 1 10 -25
14 -51 9 -728 9 -736 0z m693 -103 c0 -5 -4 -10 -10 -10 -5 0 -10 5 -10 10 0
6 5 10 10 10 6 0 10 -4 10 -10z m60 0 c0 -5 -4 -10 -10 -10 -5 0 -10 5 -10 10
0 6 5 10 10 10 6 0 10 -4 10 -10z m162 -167 c5 -7 6 -18 2 -24 -9 -16 -23 15
-22 51 0 20 1 21 5 5 3 -11 10 -25 15 -32z m-202 -53 c-20 -13 -33 -13 -25 0
3 6 14 10 23 10 15 0 15 -2 2 -10z m80 0 c0 -5 -5 -10 -11 -10 -5 0 -7 5 -4
10 3 6 8 10 11 10 2 0 4 -4 4 -10z m-45 -178 c-3 -3 -11 0 -18 7 -9 10 -8 11
6 5 10 -3 15 -9 12 -12z m-110 -3 c11 -16 1 -19 -13 -3 -7 8 -8 14 -3 14 5 0
13 -5 16 -11z m125 -28 c0 -5 -7 -11 -14 -14 -10 -4 -13 -1 -9 9 6 15 23 19
23 5z m-43 -83 c-3 -8 -6 -5 -6 6 -1 11 2 17 5 13 3 -3 4 -12 1 -19z m113 7
c9 -10 9 -15 1 -15 -6 0 -11 -7 -11 -17 0 -26 -13 -6 -15 22 -1 29 7 32 25 10z
m-66 -70 c3 -8 1 -15 -4 -15 -6 0 -10 7 -10 15 0 8 2 15 4 15 2 0 6 -7 10 -15z"/>
<path d="M16592 10523 c2 -209 6 -185 10 70 2 75 0 137 -4 137 -5 0 -7 -93 -6
-207z"/>
<path d="M16751 10464 c0 -11 3 -14 6 -6 3 7 2 16 -1 19 -3 4 -6 -2 -5 -13z"/>
<path d="M16355 10350 c-3 -5 1 -10 9 -10 9 0 16 5 16 10 0 6 -4 10 -9 10 -6
0 -13 -4 -16 -10z"/>
<path d="M16613 10280 c0 -25 2 -35 4 -22 2 12 2 32 0 45 -2 12 -4 2 -4 -23z"/>
<path d="M16751 10234 c0 -11 3 -14 6 -6 3 7 2 16 -1 19 -3 4 -6 -2 -5 -13z"/>
<path d="M16594 10150 c0 -52 1 -74 3 -47 2 26 2 68 0 95 -2 26 -3 4 -3 -48z"/>
<path d="M16731 10174 c0 -11 3 -14 6 -6 3 7 2 16 -1 19 -3 4 -6 -2 -5 -13z"/>
<path d="M4968 10123 c6 -2 18 -2 25 0 6 3 1 5 -13 5 -14 0 -19 -2 -12 -5z"/>
<path d="M16615 10070 c-3 -5 -1 -10 4 -10 6 0 11 5 11 10 0 6 -2 10 -4 10 -3
0 -8 -4 -11 -10z"/>
<path d="M16668 10033 c12 -2 30 -2 40 0 9 3 -1 5 -23 4 -22 0 -30 -2 -17 -4z"/>
<path d="M5060 9870 c0 -5 5 -10 10 -10 6 0 10 5 10 10 0 6 -4 10 -10 10 -5 0
-10 -4 -10 -10z"/>
<path d="M5090 9837 c8 -7 20 -18 25 -25 8 -9 11 -7 11 7 0 11 -4 18 -7 15 -4
-2 -10 0 -14 6 -3 5 -12 10 -18 10 -8 -1 -7 -5 3 -13z"/>
<path d="M5201 9738 c2 -2 18 -14 34 -28 l30 -25 -24 28 c-14 15 -29 27 -34
27 -6 0 -8 -1 -6 -2z"/>
<path d="M5262 9716 c7 -8 15 -12 17 -11 5 6 -10 25 -20 25 -5 0 -4 -6 3 -14z"/>
<path d="M5300 9662 c0 -12 19 -26 26 -19 2 2 -2 10 -11 17 -9 8 -15 8 -15 2z"/>
<path d="M5410 9586 c0 -2 8 -10 18 -17 15 -13 16 -12 3 4 -13 16 -21 21 -21
13z"/>
<path d="M6090 8890 c8 -5 22 -9 30 -9 10 0 8 3 -5 9 -27 12 -43 12 -25 0z"/>
<path d="M6316 8851 c17 -4 36 -11 42 -15 7 -4 12 -3 12 2 0 13 -26 22 -58 21
-26 -1 -26 -1 4 -8z"/>
<path d="M6418 8823 c7 -3 16 -2 19 1 4 3 -2 6 -13 5 -11 0 -14 -3 -6 -6z"/>
<path d="M6518 8803 c6 -2 18 -2 25 0 6 3 1 5 -13 5 -14 0 -19 -2 -12 -5z"/>
<path d="M7148 8673 c7 -3 16 -2 19 1 4 3 -2 6 -13 5 -11 0 -14 -3 -6 -6z"/>
<path d="M6728 8593 c7 -3 16 -2 19 1 4 3 -2 6 -13 5 -11 0 -14 -3 -6 -6z"/>
</g>
</svg>
